Coordinates
version=1
nRows=16
nColumns=40
inDegrees=yes

Units are S.I. units (second, meters, Newtons, ...)
Angles are in degrees.

endheader
time	pelvis_tilt	pelvis_list	pelvis_rotation	pelvis_tx	pelvis_ty	pelvis_tz	hip_flexion_r	hip_adduction_r	hip_rotation_r	knee_angle_r	knee_angle_r_beta	ankle_angle_r	subtalar_angle_r	mtp_angle_r	hip_flexion_l	hip_adduction_l	hip_rotation_l	knee_angle_l	knee_angle_l_beta	ankle_angle_l	subtalar_angle_l	mtp_angle_l	lumbar_extension	lumbar_bending	lumbar_rotation	arm_flex_r	arm_add_r	arm_rot_r	elbow_flex_r	pro_sup_r	wrist_flex_r	wrist_dev_r	arm_flex_l	arm_add_l	arm_rot_l	elbow_flex_l	pro_sup_l	wrist_flex_l	wrist_dev_l
      5.70750000	     -4.64049462	     -3.92068666	      4.15050136	      0.73501081	      0.92110336	      0.48284634	     -0.99048519	      0.30388994	    -16.02822061	     20.75785934	     20.75785934	     17.85126008	      2.57004713	     -6.04321123	     27.67466896	     -3.56958297	      2.84564216	     25.21276464	     25.21276464	      4.47993337	    -14.41607333	      6.78989477	     -7.42999089	      4.19670067	      2.73588451	     32.45451106	    -15.21991029	      0.62894923	     75.04917556	     45.33758772	      0.00000000	      0.00000000	     -6.32621405	     -8.75047906	    -10.00376457	     35.98046531	     46.15889248	      0.00000000	      0.00000000
      5.72114286	     -4.67311852	     -3.81363470	      3.97293491	      0.73538945	      0.92188190	      0.47965369	     -0.63655029	     -0.34684518	    -15.90042389	     22.24435127	     22.24435127	     17.15090888	      2.33562580	     -7.62784557	     27.31505043	     -3.33665065	      2.63959098	     25.55621055	     25.55621055	      5.32299791	    -14.44133220	      7.43172776	     -7.46363924	      4.27927902	      2.67551347	     31.53332081	    -15.30410376	      0.57608826	     72.03058653	     45.43043216	      0.00000000	      0.00000000	     -6.24330990	     -8.85312783	     -9.48282895	     37.52531362	     46.10089102	      0.00000000	      0.00000000
      5.73478571	     -4.68258363	     -3.68157659	      3.81391419	      0.73565520	      0.92253005	      0.47633359	     -0.06909028	     -1.09678192	    -15.69734411	     24.19601247	     24.19601247	     16.74139175	      2.06259055	     -8.36319349	     26.86838092	     -3.08180673	      2.36721520	     25.77273797	     25.77273797	      5.88298337	    -14.45449489	      7.28092177	     -7.58677806	      4.34312056	      2.95469936	     30.08358440	    -15.86530128	      0.45471772	     70.17764603	     45.48894329	      0.00000000	      0.00000000	     -5.50355638	     -8.81560026	     -9.41996326	     38.37246738	     46.10688974	      0.00000000	      0.00000000
      5.74842857	     -4.70710349	     -3.55614678	      3.67114446	      0.73587409	      0.92301527	      0.47296816	      0.68863339	     -1.87882088	    -15.42490884	     26.43577467	     26.43577467	     16.11147025	      1.60733848	     -9.44402082	     26.40965636	     -2.82304517	      2.11865325	     25.93089637	     25.93089637	      6.45681717	    -14.40573534	      7.16562963	     -7.63294395	      4.43698569	      3.17592837	     28.62070598	    -16.30360417	      0.09184425	     67.80883943	     45.57316775	      0.00000000	      0.00000000	     -4.91015701	     -8.82969477	     -9.27844532	     39.42668028	     46.10363303	      0.00000000	      0.00000000
      5.76207143	     -4.70146543	     -3.56238427	      3.59092729	      0.73606080	      0.92346322	      0.46969962	      1.39189055	     -2.40417856	    -14.90683869	     28.37124692	     28.37124692	     13.87256076	      0.02534988	    -14.35302708	     25.92829957	     -2.67955446	      1.99565352	     26.08370094	     26.08370094	      7.30804309	    -14.21106994	      7.56648311	     -7.58340546	      4.62773249	      2.46283700	     28.61336248	    -15.05197200	     -1.99869292	     61.67625000	     45.83786463	      0.00000000	      0.00000000	     -5.66464517	     -9.32493801	     -7.86593571	     42.59359733	     45.97034504	      0.00000000	      0.00000000
      5.77571429	     -4.64508669	     -3.39453597	      3.51808984	      0.73612324	      0.92376411	      0.46627524	      2.53006268	     -3.31862257	    -14.52048503	     31.39824638	     31.39824638	     12.86121807	     -0.84238013	    -15.38196376	     25.35224340	     -2.35964593	      1.77069897	     26.16362617	     26.16362617	      7.87228544	    -14.07076400	      7.31476040	     -7.70063267	      4.69064905	      2.46838200	     26.90603625	    -15.54885057	     -2.12670146	     60.12439384	     45.88441354	      0.00000000	      0.00000000	     -5.04565281	     -9.43121814	     -7.85112722	     43.42173620	     45.98468045	      0.00000000	      0.00000000
      5.78935714	     -4.68414934	     -3.37867945	      3.45862995	      0.73601722	      0.92389311	      0.46314424	      3.83269142	     -3.83304668	    -13.55093315	     34.12201961	     34.12201961	      9.83629500	     -3.82532436	    -20.70029518	     24.89062482	     -2.20382239	      1.61205254	     26.21293449	     26.21293449	      8.53826714	    -13.83836074	      7.16331286	     -7.69352401	      4.86249316	      2.14964979	     26.21151713	    -14.94417029	     -4.34648374	     55.15389776	     46.10715084	      0.00000000	      0.00000000	     -5.49363254	    -10.00424779	     -6.58557073	     46.49183323	     45.90764468	      0.00000000	      0.00000000
      5.80300000	     -4.66716580	     -3.29801534	      3.40776698	      0.73574485	      0.92391624	      0.45997951	      5.49423670	     -4.54977429	    -12.72165629	     37.71798938	     37.71798938	      7.95299229	     -5.73049120	    -21.93759005	     24.40010357	     -1.96356203	      1.49114493	     26.29981498	     26.29981498	      9.09302287	    -13.76750287	      6.86567063	     -7.77197138	      4.99168906	      2.34069749	     24.40765989	    -15.50138020	     -5.11284722	     52.78544320	     46.19760754	      0.00000000	      0.00000000	     -4.88838966	    -10.15549038	     -6.42464829	     47.86173263	     45.92639035	      0.00000000	      0.00000000
      5.81664286	     -4.61482129	     -3.19811447	      3.37109835	      0.73540771	      0.92392919	      0.45702745	      7.27635077	     -5.18345386	    -11.71736846	     41.40481150	     41.40481150	      5.39846208	     -8.27425865	    -23.78729484	     23.82111622	     -1.73352067	      1.32142560	     26.28421281	     26.28421281	      9.68011601	    -13.51692358	      6.42995559	     -7.86616132	      5.09020916	      1.95035605	     23.36614584	    -15.02832136	     -7.52521818	     49.05923721	     46.38261202	      0.00000000	      0.00000000	     -4.96898053	    -10.72735583	     -5.52289982	     50.08875514	     45.90933981	      0.00000000	      0.00000000
      5.83028571	     -4.54549299	     -2.96814672	      3.32765150	      0.73490258	      0.92385677	      0.45416443	      9.30627305	     -6.02546365	    -10.83959491	     45.50109308	     45.50109308	      3.27450825	     -9.88863567	    -23.61082708	     23.22246062	     -1.36710869	      1.12707381	     26.25891722	     26.25891722	     10.24333551	    -13.38662052	      6.12725226	     -8.03842158	      5.03532163	      1.82280851	     21.39338900	    -15.46238678	     -7.89139513	     47.54652629	     46.43694927	      0.00000000	      0.00000000	     -4.31712785	    -10.96183682	     -5.62754147	     50.91753818	     45.93985105	      0.00000000	      0.00000000
      5.84392857	     -4.46527003	     -2.97654415	      3.28440046	      0.73426529	      0.92378124	      0.45168487	     11.41975162	     -6.29050853	     -9.59832133	     49.42606112	     49.42606112	      0.79274259	    -12.39317884	    -22.85621444	     22.69716500	     -1.30094078	      0.94021291	     26.32385645	     26.32385645	     10.75443066	    -13.05815840	      5.43786794	     -8.14273248	      5.21290879	      1.70564907	     20.38772198	    -15.08879875	    -11.35720258	     43.21186604	     46.69511674	      0.00000000	      0.00000000	     -4.35832132	    -11.63234627	     -4.51848095	     53.67951798	     45.93193339	      0.00000000	      0.00000000
      5.85757143	     -4.37827162	     -2.85934778	      3.22410981	      0.73351943	      0.92371685	      0.44938634	     13.66150426	     -6.71933786	     -8.55215449	     53.43654130	     53.43654130	     -1.11220769	    -13.82934239	    -20.44401618	     22.12354120	     -1.10705242	      0.72890674	     26.31481415	     26.31481415	     11.23484561	    -12.83554407	      4.90092284	     -8.29505329	      5.24112943	      1.65283061	     18.74046571	    -15.09009946	    -13.76509113	     40.53399813	     46.82687303	      0.00000000	      0.00000000	     -3.85564715	    -12.05347389	     -4.19593014	     55.06167589	     46.00273054	      0.00000000	      0.00000000
      5.87121429	     -4.24117688	     -2.75779590	      3.14942224	      0.73271793	      0.92376790	      0.44734390	     15.88838710	     -7.01880165	     -7.54770925	     57.24884268	     57.24884268	     -2.57491688	    -14.88772080	    -16.87364658	     21.48390923	     -0.98464505	      0.39993635	     26.27524311	     26.27524311	     11.75039762	    -12.39954234	      4.34903349	     -8.51425495	      5.27917966	      1.56266032	     17.01466518	    -15.25346891	    -15.38980162	     38.20688129	     46.93026624	      0.00000000	      0.00000000	     -3.39117328	    -12.48731919	     -3.92477305	     56.50219446	     46.05960875	      0.00000000	      0.00000000
      5.88485714	     -4.11304462	     -2.65710155	      3.05629026	      0.73179551	      0.92385139	      0.44554389	     18.14735131	     -7.25407823	     -6.65825919	     60.81971987	     60.81971987	     -3.34876380	    -15.40655569	    -12.09442664	     20.86716245	     -0.86598164	      0.10841598	     26.24048621	     26.24048621	     12.19466238	    -12.08948379	      3.83848576	     -8.72249309	      5.29738919	      1.44069648	     15.38405131	    -15.35138167	    -17.12840811	     35.85473443	     47.03828479	      0.00000000	      0.00000000	     -2.91367870	    -12.90178099	     -3.71659182	     57.75263444	     46.12962537	      0.00000000	      0.00000000
      5.89850000	     -3.96527366	     -2.57323902	      2.94664483	      0.73084852	      0.92411459	      0.44399478	     20.29871891	     -7.39906126	     -5.89510744	     63.91245598	     63.91245598	     -3.82468631	    -15.86808960	     -7.59041584	     20.18031341	     -0.80072003	     -0.26110399	     26.10845969	     26.10845969	     12.62889794	    -11.63995951	      3.35474615	     -8.95664636	      5.31383203	      1.33092158	     13.67201939	    -15.47582950	    -18.50273629	     33.72724387	     47.12891149	      0.00000000	      0.00000000	     -2.40457941	    -13.28819384	     -3.62467638	     58.90562825	     46.20250582	      0.00000000	      0.00000000
      5.91214286	     -3.80177972	     -2.49334706	      2.81803433	      0.72987722	      0.92453023	      0.44264417	     22.32210931	     -7.50159538	     -5.29182286	     66.49847430	     66.49847430	     -4.02423811	    -16.28512109	     -3.66515517	     19.44756909	     -0.73662582	     -0.57522518	     25.92307081	     25.92307081	     13.01132281	    -11.28484064	      2.94622483	     -9.20244984	      5.33873786	      1.17276338	     12.01331382	    -15.63205667	    -19.67359260	     31.75097996	     47.20502694	      0.00000000	      0.00000000	     -1.90104050	    -13.60656747	     -3.61157008	     59.88330110	     46.28166681	      0.00000000	      0.00000000
